# xmcd
#
# Track frame offsets: 
#        150
#        13226
#        33598
#        48039
#        62388
#        79014
#        91394
#        106558
#        121174
#        136101
#        148481
#        162150
#        176750
#        192453
#        210043
#
# Disc length: 2963 seconds
#
# Revision: 0
# Processed by: cddbd v1.5.2PL0 Copyright (c) Steve Scherf et al.
# Submitted via: ExactAudioCopy v0.90b4
#
DISCID=be0b910f
DTITLE=Percy Sledge - When A Man Loves A Women
DYEAR=1900
DGENRE=Rock and Roll
TTITLE0=When a Man Loves a Woman
TTITLE1=The Good Love
TTITLE2=Love Among People
TTITLE3=Hard To Be Friends
TTITLE4=Behind Closed Doors
TTITLE5=It Tears Me up
TTITLE6=Out Of Left Field
TTITLE7=If This Is The Last Time
TTITLE8=Warm  and Tender Love
TTITLE9=Sudden Stop
TTITLE10=My Special Prayer
TTITLE11=I'll Be Your Everything
TTITLE12=Just Out Of Reach
TTITLE13=Blue Water
TTITLE14=My Adorable You
EXTD=
EXTT0=
EXTT1=
EXTT2=
EXTT3=
EXTT4=
EXTT5=
EXTT6=
EXTT7=
EXTT8=
EXTT9=
EXTT10=
EXTT11=
EXTT12=
EXTT13=
EXTT14=
PLAYORDER=
